USFL
nRows=203
nColumns=2
inDegrees=yes
endheader
time	tib_ant_r	
4.45766	 69.967821	
4.49093	 69.943925	
4.52419	 69.869352	
4.55746	 69.819224	
4.59073	 69.896052	
4.62399	 69.941397	
4.65726	 69.841500	
4.69052	 69.732796	
4.72379	 69.745657	
4.75706	 69.866280	
4.79032	 69.835350	
4.82359	 69.859729	
4.85685	 69.884791	
4.89012	 69.832738	
4.92339	 69.812636	
4.95665	 69.870596	
4.98992	 69.892963	
5.02319	 69.864092	
5.05645	 69.858706	
5.08972	 69.863879	
5.12298	 69.909814	
5.15625	 69.867939	
5.18952	 69.847915	
5.22278	 69.866891	
5.25605	 69.838403	
5.28931	 69.853265	
5.32258	 69.923357	
5.35585	 69.923436	
5.38911	 69.954789	
5.42238	 69.964806	
5.45565	 69.983095	
5.48891	 70.001086	
5.52218	 69.981754	
5.55544	 69.910173	
5.58871	 69.659863	
5.62198	 68.851369	
5.65524	 67.613683	
5.68851	 66.385526	
5.72177	 65.934532	
5.75504	 58.352533	
5.78831	 57.308686	
5.82157	 56.551748	
5.85484	 55.951687	
5.8881	 55.216356	
5.92137	 55.132521	
5.95464	 46.036271	
5.9879	 46.055497	
6.02117	 46.043236	
6.05444	 45.597160	
6.0877	 45.381694	
6.12097	 44.778282	
6.15423	 44.746044	
6.1875	 44.675816	
6.22077	 44.758023	
6.25403	 28.741883	
6.2873	 28.852476	
6.32056	 28.911680	
6.35383	 28.845007	
6.3871	 28.967355	
6.42036	 29.159257	
6.45363	 29.119032	
6.4869	 29.132278	
6.52016	 29.159338	
6.55343	 29.092271	
6.58669	 29.030207	
6.61996	 28.948908	
6.65323	 28.833611	
6.68649	 28.948518	
6.71976	 28.941133	
6.75302	 28.954432	
6.78629	 29.028690	
6.81956	 29.126393	
6.85282	 29.147117	
6.88609	 29.104479	
6.91935	 29.218047	
6.95262	 29.325307	
6.98589	 29.270608	
7.01915	 29.326499	
7.05242	 29.153658	
7.08569	 29.093799	
7.11895	 29.148432	
7.15222	 29.191205	
7.18548	 29.109149	
7.21875	 29.123037	
7.25202	 29.119580	
7.28528	 29.082557	
7.31855	 29.126491	
7.35181	 29.099254	
7.38508	 29.037324	
7.41835	 29.047545	
7.45161	 29.063095	
7.48488	 29.051694	
7.51815	 29.022224	
7.55141	 29.028003	
7.58468	 29.117011	
7.61794	 31.862656	
7.65121	 31.944794	
7.68448	 31.958004	
7.71774	 31.961928	
7.75101	 32.204220	
7.78427	 32.339653	
7.81754	 32.382334	
7.85081	 32.443308	
7.88407	 32.508345	
7.91734	 32.429335	
7.9506	 32.379641	
7.98387	 32.428798	
8.01714	 32.450419	
8.0504	 32.383399	
8.08367	 32.448940	
8.11694	 32.341070	
8.1502	 32.339556	
8.18347	 32.444883	
8.21673	 32.499466	
8.25	 32.456244	
8.28327	 32.398806	
8.31653	 32.426928	
8.3498	 32.528961	
8.38306	 32.415073	
8.41633	 32.507758	
8.4496	 32.622364	
8.48286	 32.411347	
8.51613	 32.301084	
8.5494	 32.185607	
8.58266	 32.207577	
8.61593	 32.229993	
8.64919	 32.216277	
8.68246	 32.210511	
8.71573	 32.192407	
8.74899	 32.159762	
8.78226	 32.173841	
8.81552	 32.118888	
8.84879	 33.686255	
8.88206	 33.646172	
8.91532	 33.568830	
8.94859	 33.467578	
8.98185	 33.494720	
9.01512	 33.566370	
9.04839	 33.523201	
9.08165	 33.489473	
9.11492	 33.306515	
9.14819	 33.217465	
9.18145	 32.936401	
9.21472	 32.787429	
9.24798	 32.593774	
9.28125	 32.489510	
9.31452	 32.515761	
9.34778	 32.425020	
9.38105	 32.392543	
9.41431	 32.343162	
9.44758	 32.227719	
9.48085	 32.047712	
9.51411	 31.656233	
9.54738	 31.624872	
9.58065	 31.648502	
9.61391	 31.566637	
9.64718	 31.443578	
9.68044	 31.493930	
9.71371	 31.563010	
9.74698	 31.509853	
9.78024	 31.439682	
9.81351	 31.381300	
9.84677	 31.714582	
9.88004	 31.709392	
9.91331	 31.700538	
9.94657	 31.516312	
9.97984	 31.434006	
10.0131	 31.435089	
10.0464	 31.505118	
10.0796	 31.627445	
10.1129	 31.695151	
10.1462	 31.756482	
10.1794	 32.062841	
10.2127	 32.372410	
10.246	 32.586012	
10.2792	 32.753646	
10.3125	 32.817689	
10.3458	 34.928413	
10.379	 34.876911	
10.4123	 34.922574	
10.4456	 36.024012	
10.4788	 36.217585	
10.5121	 36.274615	
10.5454	 36.165876	
10.5786	 41.291766	
10.6119	 41.640379	
10.6452	 41.770102	
10.6784	 49.303907	
10.7117	 49.498499	
10.745	 49.593668	
10.7782	 49.463886	
10.8115	 49.224277	
10.8448	 49.094902	
10.878	 49.092517	
10.9113	 48.897083	
10.9446	 48.699819	
10.9778	 48.753944	
11.0111	 48.702367	
11.0444	 48.678493	
11.0776	 48.683170	
11.1109	 48.752240	
11.1442	 48.858389	
11.1774	 48.913605	
